<?xml version="1.0" ?><svg xmlns="http://www.w3.org/2000/svg" xmlns:xlink="http://www.w3.org/1999/xlink" version="1.1" viewBox="0 0 512 512" style="enable-background:new 0 0 512 512;" xml:space="preserve"><style type="text/css">
	.st0{fill:#231A15;}
	.st1{fill:#FFE000;}
	.st2{fill:#BCA100;}
	.st3{fill:#FC0000;}
	.st4{fill:#AA0000;}
	.st5{fill:#F94343;}
	.st6{fill:#FFFFFF;}
	.st7{fill:#A58E07;}
	.st8{opacity:0.44;}
	.st9{fill:#756204;}
	.st10{opacity:0.64;}
	.st11{opacity:0.38;}
	.st12{fill:#5D5004;}
	.st13{fill:#B7A100;}
	.st14{fill:#1D4DFC;}
	.st15{fill:#143CAF;}
	.st16{opacity:0.59;}
	.st17{opacity:0.52;}
	.st18{fill:#FF7F1F;}
	.st19{fill:#C4570C;}
	.st20{fill:#B29904;}
	.st21{fill:#87720A;}
	.st22{fill:#DDDDDD;}
	.st23{opacity:0.51;}
	.st24{fill:#878787;}
	.st25{fill:#727272;}
	.st26{opacity:0.33;}
	.st27{opacity:0.46;}
	.st28{fill:#25CBF2;}
	.st29{fill:#0A8FA5;}
	.st30{opacity:0.58;}
	.st31{fill:#04889E;}
	.st32{fill:#035A63;}
	.st33{opacity:0.65;}
	.st34{opacity:0.39;}
	.st35{fill:#AB0000;}
	.st36{fill:#1987A1;}
	.st37{fill:#3F1F0A;}
	.st38{fill:#4DEEFF;}
	.st39{fill:#21B9C1;}
	.st40{fill:#BBF9FF;}
	.st41{fill:#64ACAF;}
	.st42{fill:#089FB7;}
	.st43{opacity:0.47;}
	.st44{opacity:0.42;}
	.st45{fill:#DBF7FC;}
	.st46{fill:#B2E7ED;}
	.st47{fill:#0FA2BA;}
	.st48{opacity:0.54;}
	.st49{fill:#8E7716;}
	.st50{fill:#191401;}
	.st51{fill:#382E02;}
	.st52{fill:#605106;}
	.st53{fill:#AFACA0;}
	.st54{fill:#BC0404;}
	.st55{fill:#750000;}
	.st56{fill:#A08B0D;}
	.st57{fill:#5B4C05;}
	.st58{opacity:0.4;}
	.st59{opacity:0.5;}
	.st60{fill:#FF8383;}
	.st61{fill:#FFF0A6;}
	.st62{fill:#E2C227;}
	.st63{fill:#AA9205;}
	.st64{fill:#FFEA71;}
	.st65{opacity:0.22;}
	.st66{fill:#B19B00;}
	.st67{fill:#1989A4;}
	.st68{fill:#13A0B7;}
	.st69{fill:#C4A805;}
	.st70{fill:#FFF3A9;}
	.st71{fill:#846E03;}
	.st72{fill:#2D2502;}
	.st73{opacity:0.36;}
	.st74{fill:#4DD307;}
	.st75{fill:#328402;}
	.st76{fill:#97FF5A;}
	.st77{fill:#7A6500;}
	.st78{fill:#246001;}
	.st79{fill:#359100;}
	.st80{fill:#968022;}
	.st81{fill:#4F420B;}
	.st82{fill:#FFED83;}
	.st83{fill:#BAA335;}
	.st84{fill:#8D0991;}
	.st85{fill:#4B044F;}
	.st86{fill:#CE15CE;}
	.st87{fill:#897502;}
	.st88{fill:#493D01;}
	.st89{fill:#C9C9C9;}
	.st90{fill:#2D280E;}
	.st91{fill:#378C06;}
	.st92{fill:#183A03;}
	.st93{fill:#94FF55;}
	.st94{fill:#2E7F04;}
	.st95{fill:#63AB39;}
	.st96{fill:#AA5F04;}
	.st97{fill:#633502;}
	.st98{fill:#EF9014;}
	.st99{fill:#A05A07;}
	.st100{fill:#05616B;}
	.st101{fill:#033335;}
	.st102{fill:#0E94AA;}
	.st103{fill:#035D66;}
	.st104{opacity:0.27;}
	.st105{opacity:0.43;}
	.st106{fill:#FFF203;}
	.st107{fill:#FFA300;}
	.st108{fill:#2B3030;}
	.st109{opacity:0.28;}
	.st110{fill:#FCD17A;}
	.st111{fill:#AF853A;}
	.st112{opacity:0.31;}
	.st113{fill:#B641FF;}
	.st114{fill:#700FBC;}
	.st115{fill:#F2D0B1;}
	.st116{fill:#AF835F;}
	.st117{fill:#C17540;}
	.st118{fill:#F2BA94;}
	.st119{fill:#592909;}
	.st120{fill:#2B1204;}
	.st121{fill:#894818;}
	.st122{fill:#512609;}
	.st123{fill:#FF7F15;}
	.st124{fill:#A04A0A;}
	.st125{fill:#B7865E;}
	.st126{fill:#70350E;}
	.st127{fill:#3A1805;}
	.st128{fill:#C1521B;}
	.st129{fill:#FFC7AE;}
	.st130{fill:#FF717F;}
	.st131{fill:#6E2F0F;}
	.st132{fill:#AC8675;}
	.st133{opacity:0.25;}
	.st134{opacity:0.32;}
	.st135{fill:#FFFCC5;}
	.st136{fill:#D1CA78;}
	.st137{fill:#D37733;}
	.st138{fill:#A04F18;}
	.st139{fill:#0ABFBA;}
	.st140{fill:#057F79;}
	.st141{fill:#15F9F9;}
	.st142{fill:#09B2AD;}
	.st143{fill:#B2B2B2;}
	.st144{fill:#FFF755;}
	.st145{fill:#BCB121;}
	.st146{fill:#F90368;}
	.st147{opacity:0.49;}
	.st148{fill:#B50857;}
	.st149{fill:#FF76B4;}
	.st150{fill:#F23091;}
	.st151{fill:#FFF800;}
	.st152{fill:#C9BF05;}
	.st153{fill:#FF8500;}
	.st154{fill:#A35507;}
	.st155{fill:#AA6E50;}
	.st156{fill:#723C25;}
	.st157{fill:#EAD4B9;}
	.st158{fill:#AA8D6F;}
	.st159{fill:#B7A8A5;}
	.st160{fill:#84726F;}
	.st161{fill:#77645F;}
	.st162{fill:#51403C;}
	.st163{fill:#EABBA7;}
	.st164{fill:#BC7F69;}
	.st165{fill:#7C5039;}
	.st166{fill:#442619;}
	.st167{fill:#B7AE04;}
	.st168{fill:#BAB108;}
	.st169{fill:#7A7105;}
	.st170{fill:#352B23;}
	.st171{fill:#050403;}
	.st172{fill:#706255;}
	.st173{fill:#44382E;}
	.st174{fill:#634319;}
	.st175{fill:#35210A;}
	.st176{fill:#2D1C08;}
	.st177{fill:#0A0601;}
	.st178{fill:#9E7443;}
	.st179{fill:#704D2A;}
	.st180{fill:#D8A73A;}
	.st181{fill:#A0741C;}
	.st182{fill:#3F2F28;}
	.st183{fill:#211410;}
	.st184{fill:#FF326C;}
	.st185{fill:#BC0749;}
	.st186{fill:#68390E;}
	.st187{fill:#A5632D;}
	.st188{fill:#3D1E05;}
	.st189{fill:#331A06;}
	.st190{fill:#110801;}
	.st191{fill:#160A02;}
	.st192{fill:#663514;}
	.st193{opacity:0.29;}
	.st194{fill:#FC001F;}
	.st195{fill:#AF021F;}
	.st196{fill:#C48622;}
	.st197{fill:#8C5910;}
	.st198{fill:#846D64;}
	.st199{fill:#513B35;}
	.st200{fill:#5B4842;}
	.st201{fill:#332522;}
	.st202{fill:#47332C;}
	.st203{fill:#543E38;}
	.st204{fill:#1E1412;}
	.st205{fill:#604C43;}
	.st206{fill:#D3896C;}
	.st207{fill:#FF001F;}
	.st208{fill:#AF0824;}
	.st209{fill:#A37462;}
	.st210{fill:#5E3E34;}
	.st211{fill:#874A38;}
	.st212{fill:#4C2218;}
	.st213{fill:#5B2B20;}
	.st214{fill:#210C09;}
	.st215{fill:#99001A;}
	.st216{fill:#A08A07;}
	.st217{fill:#A08904;}
	.st218{fill:#5B4C02;}
	.st219{fill:#CECAB7;}
	.st220{fill:#727068;}
	.st221{fill:#42403A;}
	.st222{fill:#B2B0A6;}
	.st223{fill:#726F62;}
	.st224{fill:#6B4F45;}
	.st225{fill:#3A261F;}
	.st226{fill:#777468;}
	.st227{fill:#474436;}
	.st228{fill:#B78B7D;}
	.st229{fill:#845A4E;}
	.st230{fill:#3A372D;}
	.st231{fill:#43CFFF;}
	.st232{fill:#13A0BC;}
</style><g id="_x33_2"><g><path class="st0" d="M254.39,487.85c-0.46,0-0.91,0-1.36,0l-1.55,0c-0.61,0-1.23,0-1.84-0.01c-0.81-0.01-1.62-0.02-2.42-0.03    l-1.46-0.02c-0.58-0.01-1.16-0.02-1.73-0.03c-0.86-0.02-1.72-0.04-2.58-0.07l-1.17-0.03c-0.63-0.02-1.25-0.04-1.88-0.06    c-0.92-0.03-1.85-0.07-2.77-0.11l-0.84-0.04c-0.66-0.03-1.32-0.06-1.97-0.09c-0.93-0.04-1.86-0.1-2.79-0.15l-0.9-0.05    c-0.62-0.04-1.24-0.07-1.86-0.11c-1.04-0.07-2.08-0.14-3.11-0.21c-0.81-0.06-1.62-0.11-2.43-0.18c-1.03-0.08-2.07-0.17-3.1-0.25    c-0.8-0.07-1.59-0.13-2.39-0.21c-1.05-0.1-2.09-0.19-3.13-0.3c-0.77-0.08-1.55-0.15-2.32-0.24c-1.05-0.11-2.09-0.22-3.13-0.34    c-0.77-0.09-1.53-0.18-2.3-0.27c-1.04-0.12-2.09-0.25-3.13-0.39c-0.74-0.1-1.48-0.19-2.21-0.29c-1.06-0.14-2.11-0.29-3.16-0.44    c-0.73-0.11-1.44-0.21-2.15-0.32c-1.06-0.16-2.12-0.32-3.18-0.49c-0.69-0.11-1.36-0.22-2.04-0.33c-1.1-0.18-2.17-0.36-3.24-0.55    l-1.96-0.35c-1.1-0.2-2.18-0.39-3.26-0.6l-1.84-0.36c-1.11-0.22-2.22-0.44-3.32-0.67l-1.67-0.36c-1.14-0.24-2.29-0.49-3.42-0.74    l-1.57-0.36c-1.15-0.27-2.3-0.53-3.44-0.81l-1.06-0.26c-1.3-0.32-2.6-0.65-3.89-0.98l-0.27-0.07c-7.83-2.06-15.36-4.41-22.39-6.99    l-0.4-0.15c-1.2-0.44-2.4-0.9-3.59-1.37l-0.83-0.32c-1.11-0.44-2.2-0.88-3.29-1.34l-1.04-0.43c-1.03-0.43-2.05-0.88-3.07-1.33    l-0.38-0.17c-0.26-0.11-0.52-0.23-0.78-0.35c-0.96-0.43-1.93-0.88-2.9-1.34l-1.19-0.56c-0.95-0.46-1.88-0.92-2.8-1.39l-1.21-0.61    c-0.9-0.46-1.79-0.94-2.68-1.42l-0.18-0.1c-0.35-0.19-0.69-0.37-1.03-0.56c-0.86-0.47-1.71-0.96-2.56-1.45    c-0.41-0.24-0.8-0.46-1.19-0.69c-0.63-0.37-1.18-0.7-1.72-1.03l-0.77-0.48c-0.4-0.25-0.78-0.49-1.15-0.72l-0.2-0.13    c-0.2-0.12-0.4-0.25-0.6-0.38c-0.44-0.28-0.88-0.58-1.32-0.87l-1.84-1.24c-0.54-0.37-1.1-0.76-1.65-1.15l-1.78-1.3    c-0.44-0.33-0.88-0.65-1.31-0.98c-0.13-0.1-0.27-0.21-0.41-0.32l-0.1-0.08c-0.22-0.17-0.46-0.36-0.71-0.56l-0.37-0.29    c-0.3-0.23-0.6-0.47-0.89-0.71c-0.33-0.27-0.63-0.52-0.93-0.78l-0.74-0.63c-0.41-0.35-0.79-0.68-1.17-1.01    c-0.42-0.37-0.83-0.74-1.23-1.1c-0.57-0.52-1.14-1.06-1.7-1.6l-0.27-0.26c-0.22-0.21-0.44-0.42-0.65-0.62    c-0.12-0.12-0.24-0.24-0.35-0.36l-0.33-0.33c0,0-0.07-0.08-0.08-0.08c-0.54-0.55-1.08-1.1-1.6-1.65    c-0.21-0.22-0.41-0.45-0.62-0.67l-0.34-0.38c-0.54-0.6-1.02-1.14-1.49-1.69c-0.29-0.34-0.55-0.65-0.8-0.95    c-0.04-0.05-0.09-0.1-0.12-0.14c-0.6-0.73-1.19-1.48-1.77-2.24c-0.12-0.15-0.23-0.29-0.34-0.44c-0.65-0.87-1.31-1.8-2.02-2.84    c-0.15-0.22-0.3-0.45-0.44-0.67l-0.13-0.21c-0.48-0.74-0.94-1.48-1.39-2.22l-0.09-0.14c-0.15-0.25-0.3-0.5-0.45-0.75    c-0.66-1.14-1.21-2.15-1.69-3.1c-4.21-8.29-7.76-17.08-10.55-26.13c-4.54-14.72-7.1-30.06-7.6-45.59    c-0.31-9.63,0.19-19.32,1.47-28.79c0.16-1.2,0.34-2.39,0.53-3.59c1.72-10.9,4.5-21.59,8.27-31.79c0.85-2.3,1.77-4.61,2.72-6.87    c1.45-3.42,3.03-6.83,4.7-10.12c7.54-14.86,17.35-28.38,29.14-40.2c6.61-6.62,13.92-12.77,21.73-18.27l38.23-26.93    c-3-4.91-4.63-10.57-4.86-16.91c-0.44-12.08,3.54-21.54,11.21-27.3c-2.35-7.52-1.07-15.08,3.76-20.77    c3.48-4.1,8.39-6.73,13.94-7.76c-3.61-4.25-6.98-8.88-10.02-13.77c-0.53-0.85-1.05-1.71-1.55-2.58c-2.06-3.53-3.9-7.11-5.46-10.64    c-0.81-1.83-1.55-3.67-2.21-5.46c-1.39-3.79-2.44-7.51-3.13-11.05c-0.75-3.91-1.07-7.66-0.93-11.14c0.12-2.94,0.55-5.74,1.3-8.32    c0.83-2.88,2.06-5.54,3.65-7.91c2.83-4.21,6.73-7.48,11.62-9.71c0.02-0.01,0.04-0.02,0.07-0.03c0.93-0.42,1.83-0.8,2.72-1.16    l0.75-0.3c0.7-0.28,1.38-0.53,2.04-0.76l0.65-0.23c1.79-0.61,3.53-1.1,5.22-1.48l0.45-0.1c0.83-0.18,1.56-0.31,2.28-0.43    l0.37-0.06c1.68-0.25,3.38-0.38,5.02-0.39l0.24,0v0c9.19,0.01,16.82,3.83,22.67,11.33c0.54,0.69,1.07,1.42,1.59,2.18    c1.18-0.66,2.58-1.5,4.05-2.38c1.6-0.96,3.25-1.95,5.04-2.97l2.99-1.64c0.38-0.2,0.7-0.36,1.02-0.53c0.29-0.15,0.59-0.3,0.88-0.45    c0.4-0.2,0.77-0.38,1.14-0.55l0.83-0.39c0.56-0.26,1.11-0.5,1.67-0.74l0.54-0.23c0.64-0.27,1.27-0.52,1.91-0.76    c0.21-0.08,0.39-0.14,0.58-0.21l0.18-0.06c0.5-0.18,0.99-0.36,1.48-0.52c0.25-0.08,0.48-0.16,0.71-0.23l0.13-0.04    c0.51-0.16,1.01-0.31,1.5-0.45c0.33-0.09,0.62-0.17,0.9-0.25c0.53-0.14,1.08-0.27,1.64-0.39l0.16-0.04    c0.2-0.05,0.41-0.09,0.61-0.14c0.93-0.19,1.75-0.33,2.53-0.45c0.04-0.01,0.08-0.01,0.12-0.02c2.22-0.32,4.38-0.45,6.43-0.4    c0.51,0.01,1,0.04,1.49,0.08c0.21,0.01,0.42,0.02,0.61,0.04c0.24,0.02,0.49,0.05,0.75,0.09c1.2,0.14,2.23,0.32,3.21,0.55    c0.25,0.06,0.5,0.12,0.75,0.2l0.15,0.04c0.32,0.08,0.65,0.17,0.96,0.27c0.23,0.07,0.45,0.15,0.66,0.22    c0.44,0.15,0.8,0.27,1.15,0.41c0.11,0.04,0.23,0.09,0.34,0.14c0.44,0.18,0.9,0.38,1.34,0.59c0.19,0.09,0.35,0.17,0.5,0.25    c0.37,0.18,0.74,0.38,1.1,0.58c0.17,0.09,0.35,0.2,0.52,0.31l0.03,0.02c0.32,0.19,0.63,0.38,0.93,0.58    c0.08,0.05,0.21,0.14,0.31,0.21c0.38,0.26,0.73,0.5,1.06,0.75c0.07,0.05,0.18,0.14,0.27,0.21c0.32,0.24,0.66,0.51,0.99,0.79    c0.04,0.04,0.1,0.08,0.15,0.12c2.89,2.45,5.04,5.23,6.76,7.46c0.68,0.88,1.58,2.05,2.33,2.87c1.59-0.69,3.69-1.83,5.91-3.03    c1.92-1.05,4.1-2.23,6.42-3.38l0.76-0.37c0.27-0.13,0.56-0.27,0.85-0.41c0.42-0.2,0.85-0.4,1.28-0.59l0.72-0.32    c0.47-0.21,0.95-0.42,1.43-0.62l0.68-0.28c0.45-0.18,0.94-0.38,1.44-0.56l0.6-0.23c0.57-0.21,1.12-0.4,1.67-0.59l0.46-0.15    c0.64-0.21,1.29-0.41,1.95-0.59l0.54-0.15c0.62-0.17,1.3-0.34,1.99-0.5l0.48-0.11c0.72-0.16,1.44-0.3,2.15-0.43l0.4-0.07    c0.81-0.13,1.57-0.24,2.33-0.33l0.31-0.03c0.95-0.1,1.76-0.16,2.54-0.2c0.06,0,0.19-0.01,0.28-0.01c0.84-0.03,1.68-0.05,2.5-0.03    l0.19,0c0.81,0.02,1.68,0.06,2.62,0.14l0.31,0.03c0.86,0.08,1.71,0.19,2.63,0.33l0.39,0.06c0.9,0.15,1.78,0.33,2.65,0.54l0.42,0.1    c0.92,0.23,1.81,0.48,2.65,0.74l0.36,0.12c0.99,0.32,1.88,0.65,2.75,1l0.34,0.14c0.93,0.38,1.87,0.8,2.78,1.24    c0.79,0.38,1.59,0.81,2.47,1.3c0.3,0.17,0.62,0.36,0.95,0.55c0.44,0.26,0.82,0.5,1.21,0.75c4.78,3.02,8.58,6.72,11.26,10.96    c0.99,1.57,1.85,3.23,2.54,4.94c0.67,1.65,1.2,3.39,1.58,5.15c1.02,4.76,0.99,9.89-0.1,15.26c-0.47,2.32-1.15,4.72-2.01,7.13    c-1.54,4.28-3.7,8.68-6.41,13.08c-2.38,3.86-5.16,7.66-8.24,11.3c-3.45,4.07-5.94,8.37-7.72,12.3c5.54,3.96,9.07,9.52,9.9,15.83    c0.44,3.32,0.33,8.75-3.08,14.8c1.11,1.07,2.12,2.2,3.02,3.37c0.4,0.52,0.78,1.05,1.14,1.59l0.1,0.15    c0.32,0.49,0.65,1.02,0.96,1.56l0.14,0.26c0.31,0.56,0.58,1.09,0.83,1.62c0.06,0.12,0.12,0.26,0.18,0.4    c0.26,0.58,0.46,1.08,0.65,1.59c0.07,0.19,0.15,0.41,0.22,0.63c0,0.01,0.03,0.09,0.03,0.1c0.12,0.36,0.24,0.72,0.34,1.08    c10.19,1.34,23.19,3.43,36.71,6.61c23.12,5.44,41.23,19.17,46.14,34.98c2.66,8.59,1.07,16.95-4.38,22.94    c-0.43,0.47-0.85,0.92-1.26,1.34l-0.28,0.28c-0.41,0.41-0.76,0.76-1.11,1.08l-0.29,0.27c-0.48,0.44-0.95,0.85-1.42,1.23    c-0.01,0.01-0.03,0.02-0.04,0.03c-6.05,4.91-12.71,6-20.3,3.31c6.35,7.83,12.51,16.45,18.17,25.89    c7.91,13.18,14.57,26.93,19.8,40.87c0.43,1.14,0.84,2.28,1.25,3.43c1.67,4.67,3.17,9.38,4.47,14c0.67,2.38,1.3,4.79,1.87,7.15    c2.1,8.7,3.53,17.3,4.24,25.56l0,0c0.32,3.74,0.5,7.47,0.53,11.1c0.02,2.48-0.02,4.97-0.14,7.4c-0.35,7.62-1.38,15.03-3.06,22.04    c-0.58,2.43-1.25,4.86-2,7.21c-0.37,1.19-0.78,2.39-1.2,3.57c-1.71,4.8-3.78,9.5-6.17,13.94c-4.37,8.13-9.92,15.72-16.5,22.54    c-1.93,2-3.98,3.97-6.11,5.87c-10.95,9.74-24.52,17.98-40.34,24.5c-1.57,0.65-3.16,1.28-4.77,1.9c-0.34,0.13-0.69,0.26-1.03,0.39    l-0.56,0.21c-1.12,0.42-2.18,0.82-3.25,1.21c-0.45,0.16-0.89,0.31-1.33,0.47l-1.16,0.41c-0.81,0.29-1.62,0.57-2.45,0.85    c-0.49,0.16-0.98,0.33-1.48,0.49l-0.93,0.31c-0.86,0.28-1.71,0.56-2.58,0.84c-0.57,0.18-1.14,0.35-1.71,0.53l-1,0.31    c-0.79,0.24-1.57,0.48-2.36,0.72c-0.62,0.18-1.25,0.36-1.87,0.54l-0.75,0.22c-0.83,0.24-1.67,0.48-2.51,0.71    c-0.69,0.19-1.37,0.37-2.05,0.55l-0.33,0.09c-0.94,0.25-1.87,0.5-2.82,0.74c-0.8,0.2-1.6,0.4-2.4,0.6    c-0.97,0.24-1.92,0.47-2.86,0.7c-0.82,0.2-1.65,0.39-2.48,0.58c-0.94,0.22-1.88,0.43-2.83,0.64c-0.84,0.19-1.68,0.36-2.52,0.54    c-0.95,0.2-1.9,0.4-2.85,0.59c-0.85,0.17-1.7,0.34-2.55,0.51c-0.95,0.18-1.91,0.37-2.87,0.54c-0.86,0.16-1.71,0.32-2.57,0.47    c-0.96,0.17-1.93,0.34-2.9,0.5c-0.86,0.15-1.72,0.29-2.59,0.43c-0.97,0.16-1.93,0.31-2.9,0.46c-0.86,0.13-1.74,0.27-2.61,0.4    c-0.98,0.14-1.95,0.28-2.92,0.41l-0.31,0.04c-0.78,0.11-1.55,0.21-2.33,0.32c-0.96,0.13-1.94,0.25-2.91,0.37l-0.33,0.04    c-0.78,0.1-1.55,0.19-2.33,0.28c-0.8,0.09-1.61,0.18-2.42,0.27l-1.09,0.12c-0.69,0.08-1.38,0.15-2.08,0.22    c-0.81,0.08-1.62,0.16-2.43,0.24l-1.17,0.11c-0.67,0.06-1.35,0.13-2.02,0.19c-0.77,0.07-1.54,0.13-2.3,0.19l-1.3,0.1    c-0.68,0.05-1.35,0.11-2.03,0.16c-0.78,0.06-1.54,0.11-2.31,0.16l-1.3,0.09c-0.68,0.05-1.36,0.09-2.04,0.13    c-0.71,0.04-1.41,0.08-2.1,0.11l-1.75,0.09c-0.6,0.03-1.2,0.06-1.8,0.09c-0.81,0.04-1.61,0.07-2.41,0.1l-0.76,0.03    c-1.72,0.06-3.43,0.12-5.15,0.16l-0.81,0.02c-0.69,0.02-1.38,0.04-2.07,0.05c-0.7,0.01-1.39,0.02-2.09,0.03l-1.75,0.02    c-0.6,0.01-1.2,0.02-1.8,0.02C254.98,487.85,254.68,487.85,254.39,487.85z M97.2,420.88c0.04,0.05,0.08,0.09,0.11,0.13    c0.17,0.21,0.36,0.43,0.56,0.66c0.38,0.45,0.74,0.86,1.11,1.26l0.78,0.86c0.4,0.43,0.81,0.85,1.23,1.27l0.54,0.55    c0.15,0.15,0.26,0.26,0.37,0.36l0.39,0.38c0.42,0.4,0.86,0.82,1.32,1.24c0.33,0.3,0.66,0.6,1,0.89c0.29,0.26,0.6,0.52,0.9,0.79    l0.67,0.56c0.23,0.2,0.46,0.39,0.7,0.59c0.19,0.15,0.39,0.31,0.6,0.48l1.39,1.1c0.34,0.26,0.68,0.51,1.02,0.76l1.54,1.13    c0.43,0.31,0.9,0.63,1.36,0.95l1.6,1.08c0.35,0.23,0.7,0.47,1.05,0.7l0.67,0.42c0.34,0.21,0.65,0.41,0.97,0.61l0.66,0.42    c0.45,0.27,0.91,0.55,1.38,0.82c0.42,0.25,0.76,0.45,1.1,0.65c0.72,0.42,1.47,0.84,2.22,1.26c0.29,0.16,0.58,0.32,0.86,0.47    l0.19,0.1c0.77,0.42,1.55,0.83,2.34,1.24l1.07,0.54c0.81,0.41,1.62,0.82,2.45,1.22l1.06,0.5c0.84,0.4,1.7,0.8,2.58,1.2l1.03,0.46    c0.9,0.4,1.81,0.8,2.74,1.19l0.92,0.38c0.99,0.41,1.98,0.82,2.98,1.21l0.74,0.28c1.07,0.42,2.16,0.84,3.26,1.24l0.32,0.12    c6.48,2.38,13.41,4.54,20.62,6.43l0.2,0.05c1.26,0.33,2.46,0.63,3.67,0.93l0.99,0.25c1.06,0.26,2.14,0.51,3.21,0.75l1.47,0.34    c1.07,0.24,2.13,0.47,3.2,0.69l1.56,0.33c1.04,0.22,2.08,0.42,3.11,0.62l1.74,0.34c1.01,0.19,2.03,0.38,3.05,0.56l1.85,0.33    c1.01,0.18,2.01,0.34,3.02,0.51c0.68,0.11,1.31,0.22,1.95,0.32c0.99,0.16,2,0.31,3,0.46l2.04,0.3c0.98,0.14,1.98,0.28,2.98,0.41    l2.11,0.28c0.98,0.12,1.97,0.25,2.96,0.37c0.72,0.09,1.44,0.17,2.16,0.25c0.99,0.11,1.98,0.22,2.98,0.33    c0.73,0.08,1.46,0.15,2.19,0.22c1,0.1,1.99,0.19,2.98,0.28c0.75,0.07,1.5,0.13,2.25,0.2c0.98,0.08,1.96,0.17,2.95,0.24    c0.77,0.06,1.54,0.11,2.31,0.17c0.98,0.07,1.97,0.14,2.95,0.2l2.63,0.15c0.88,0.05,1.76,0.1,2.64,0.14    c0.62,0.03,1.23,0.06,1.85,0.08l0.85,0.04c0.87,0.04,1.74,0.08,2.62,0.11c0.58,0.02,1.16,0.04,1.74,0.05l1.19,0.04    c0.8,0.02,1.6,0.05,2.41,0.06c0.53,0.01,1.07,0.02,1.6,0.03l1.49,0.02c0.75,0.01,1.5,0.02,2.26,0.03c0.57,0,1.13,0,1.7,0.01    l1.59,0c0.69,0,1.39,0,2.08,0c0.54,0,1.09-0.01,1.64-0.02l1.82-0.02c0.64-0.01,1.28-0.01,1.91-0.02c0.63-0.01,1.27-0.03,1.9-0.05    l0.84-0.02c1.64-0.04,3.27-0.09,4.91-0.16l0.78-0.03c0.74-0.03,1.49-0.06,2.23-0.09c0.54-0.03,1.09-0.06,1.64-0.08l1.81-0.09    c0.65-0.03,1.29-0.07,1.94-0.1c0.62-0.04,1.24-0.08,1.87-0.12l1.36-0.09c0.72-0.05,1.43-0.09,2.15-0.15    c0.62-0.05,1.24-0.1,1.87-0.15l1.34-0.11c0.72-0.06,1.43-0.11,2.14-0.18c0.62-0.05,1.24-0.11,1.87-0.17l1.2-0.11    c0.76-0.07,1.52-0.14,2.27-0.22c0.65-0.07,1.29-0.14,1.94-0.21l1.09-0.12c0.76-0.08,1.52-0.17,2.28-0.25    c0.74-0.08,1.47-0.18,2.19-0.27l0.33-0.04c0.92-0.11,1.84-0.23,2.76-0.35c0.75-0.1,1.48-0.2,2.2-0.3l0.31-0.04    c0.92-0.13,1.84-0.26,2.76-0.39c0.82-0.12,1.64-0.25,2.47-0.37c0.92-0.14,1.83-0.28,2.74-0.43c0.82-0.13,1.63-0.27,2.45-0.41    c0.91-0.16,1.82-0.31,2.73-0.47c0.81-0.15,1.62-0.29,2.43-0.44c0.89-0.17,1.8-0.34,2.7-0.51c0.8-0.16,1.6-0.31,2.39-0.47    c0.89-0.18,1.79-0.37,2.69-0.56c0.79-0.17,1.57-0.33,2.36-0.51c0.89-0.2,1.77-0.4,2.66-0.6c0.78-0.18,1.55-0.36,2.32-0.54    c0.89-0.21,1.77-0.43,2.65-0.64c0.79-0.2,1.54-0.38,2.28-0.57c0.88-0.23,1.75-0.46,2.63-0.69l0.34-0.09    c0.63-0.17,1.27-0.34,1.9-0.51c0.77-0.21,1.54-0.43,2.31-0.65l0.77-0.22c0.56-0.16,1.13-0.32,1.69-0.49    c0.73-0.21,1.44-0.44,2.16-0.66l1.04-0.32c0.5-0.15,1-0.31,1.5-0.46c0.79-0.25,1.57-0.51,2.36-0.77l0.99-0.32    c0.43-0.14,0.85-0.28,1.27-0.42c0.75-0.25,1.48-0.51,2.21-0.77l1.23-0.43c0.37-0.13,0.74-0.26,1.1-0.39    c0.97-0.35,1.94-0.72,2.91-1.09l0.73-0.27c0.26-0.1,0.53-0.2,0.79-0.3c1.47-0.57,2.92-1.14,4.35-1.73    c13.74-5.66,25.4-12.7,34.66-20.95c1.75-1.55,3.43-3.17,5.01-4.81c5.31-5.5,9.77-11.6,13.27-18.12c1.91-3.56,3.58-7.32,4.95-11.18    c0.34-0.96,0.66-1.92,0.97-2.88c0.6-1.92,1.15-3.89,1.62-5.87c1.39-5.79,2.24-11.94,2.53-18.3c0.1-2.06,0.13-4.18,0.11-6.29    c-0.03-3.12-0.18-6.33-0.46-9.56v0c-0.62-7.26-1.89-14.85-3.75-22.58c-0.51-2.12-1.08-4.28-1.68-6.43    c-1.18-4.18-2.54-8.46-4.06-12.7c-0.37-1.05-0.76-2.09-1.14-3.13c-4.8-12.81-10.93-25.46-18.22-37.6    c-22.82-38.03-54.58-61.76-71.48-72.51c-4.1-2.61-5.73-7.79-3.87-12.27c1.22-2.93,3.7-5.01,6.59-5.81    c-3.3-1.87-5.38-5.55-5.03-9.57c0.03-0.29,0.04-0.54,0.04-0.75c0-0.17-0.01-0.35-0.02-0.54l-0.22-1.26    c-0.03-0.09-0.06-0.19-0.09-0.28l-0.07-0.21l0.02,0.06c-0.05-0.14-0.1-0.26-0.16-0.37l-0.06-0.14c-0.05-0.11-0.12-0.24-0.19-0.36    c0-0.01-0.05-0.09-0.05-0.09c-0.07-0.12-0.16-0.27-0.25-0.41c-0.14-0.21-0.25-0.37-0.38-0.53c-0.56-0.73-1.29-1.45-2.17-2.15    c-0.28-0.22-0.57-0.43-0.86-0.64l-0.12-0.08c-0.26-0.18-0.54-0.36-0.82-0.54c-0.01,0-0.1-0.06-0.1-0.07    c-0.36-0.22-0.63-0.38-0.91-0.54l-0.23-0.13c-0.35-0.2-0.71-0.39-1.07-0.57c-3.01-1.51-5.05-4.43-5.44-7.77    c-0.39-3.34,0.92-6.66,3.5-8.82c3.2-2.69,4.46-5.17,4.29-6.45c-0.13-1.01-1.4-2.19-3.29-3.08c-0.13-0.06-0.24-0.11-0.35-0.15    c-0.03-0.01-0.1-0.04-0.14-0.05l-0.47-0.17c-0.04-0.01-0.13-0.04-0.17-0.05c0,0,0,0,0,0c0,0-0.04-0.01-0.08-0.02    c-0.02,0-0.03-0.01-0.05-0.01c-0.03-0.01-0.08-0.02-0.09-0.02c-2.72-0.57-5.09-2.25-6.52-4.64c-1.43-2.39-1.81-5.26-1.03-7.94    c2.98-10.29,8.03-19.82,14.6-27.56c2.44-2.88,4.62-5.86,6.48-8.87c1.99-3.22,3.54-6.36,4.61-9.33c0.54-1.5,0.96-2.96,1.23-4.34    c0.54-2.65,0.59-5.03,0.15-7.07c-0.14-0.64-0.33-1.27-0.57-1.86c-0.24-0.6-0.54-1.19-0.9-1.74c-1.09-1.73-2.81-3.34-5.1-4.79    c-0.24-0.16-0.46-0.29-0.67-0.42c-0.15-0.09-0.34-0.2-0.54-0.31c-0.49-0.28-0.96-0.53-1.46-0.78c-0.5-0.25-1.03-0.48-1.62-0.72    c-0.03-0.01-0.06-0.03-0.1-0.04c-0.02-0.01-0.12-0.05-0.14-0.06c-0.38-0.15-0.87-0.33-1.4-0.5l-0.17-0.06    c-0.52-0.17-0.99-0.29-1.46-0.41l-0.16-0.04c-0.52-0.12-0.96-0.21-1.41-0.29l-0.21-0.03c-0.46-0.07-0.91-0.13-1.35-0.17    c-0.01,0-0.12-0.01-0.13-0.01c-0.51-0.04-0.96-0.07-1.41-0.08l-0.16,0c-0.4-0.01-0.85,0-1.29,0.02c-0.04,0-0.12,0-0.18,0.01    c-0.47,0.03-0.88,0.06-1.28,0.1l-0.22,0.02c-0.41,0.05-0.84,0.11-1.27,0.18l-0.29,0.05c-0.39,0.07-0.81,0.15-1.23,0.25l-0.27,0.06    c-0.44,0.1-0.85,0.21-1.26,0.32l-0.31,0.09c-0.42,0.12-0.84,0.24-1.25,0.38l-0.31,0.1c-0.38,0.13-0.75,0.26-1.12,0.39l-0.43,0.16    c-0.34,0.13-0.68,0.26-1.02,0.4l-0.48,0.19c-0.33,0.14-0.69,0.29-1.04,0.45l-0.55,0.24c-0.35,0.16-0.67,0.31-1,0.46l-1.29,0.62    c-1.96,0.97-3.88,2.01-5.73,3.02c-3.05,1.66-5.92,3.22-8.74,4.32c-0.01,0-0.02,0.01-0.03,0.01c-0.02,0.01-0.04,0.02-0.07,0.03    c-0.57,0.22-1.13,0.42-1.67,0.59c-0.03,0.01-0.12,0.04-0.15,0.05c-0.66,0.2-1.25,0.36-1.84,0.5c-0.04,0.01-0.08,0.02-0.13,0.03    c-0.59,0.13-1.19,0.23-1.79,0.3c-0.14,0.02-0.29,0.04-0.42,0.05c-0.6,0.06-1.32,0.09-2.03,0.07l-0.3-0.01c-0.04,0-0.07,0-0.11,0    c-0.8-0.04-1.59-0.14-2.34-0.3c-0.12-0.03-0.3-0.07-0.44-0.1c-0.87-0.21-1.67-0.48-2.45-0.82c-0.08-0.04-0.16-0.07-0.24-0.11    c-0.03-0.01-0.06-0.03-0.09-0.04c-5.11-2.37-8.26-6.46-10.79-9.74c-1.33-1.72-2.58-3.35-3.87-4.43c-0.03-0.02-0.06-0.05-0.1-0.08    c-0.07-0.06-0.17-0.13-0.26-0.2c-0.03-0.02-0.08-0.06-0.12-0.09c-0.1-0.07-0.17-0.12-0.25-0.17c-0.03-0.02-0.06-0.04-0.1-0.07    l-0.59-0.33c-0.08-0.04-0.15-0.08-0.22-0.11c-0.06-0.02-0.13-0.05-0.21-0.08c-0.04-0.02-0.08-0.03-0.13-0.05l-0.96-0.28    c-0.18-0.04-0.45-0.09-0.87-0.13l-0.25-0.03c-0.06,0-0.12-0.01-0.17-0.01c-0.22-0.02-0.42-0.04-0.63-0.04    c-0.94-0.03-2,0.05-3.14,0.21c-0.03,0-0.05,0.01-0.08,0.01c-0.44,0.07-0.88,0.15-1.31,0.24l-0.45,0.1    c-0.31,0.07-0.63,0.14-0.94,0.22l-0.55,0.15c-0.3,0.08-0.6,0.17-0.9,0.27l-0.57,0.18c-0.3,0.1-0.62,0.21-0.93,0.33l-0.52,0.19    c-0.41,0.16-0.84,0.33-1.26,0.51l-0.35,0.15c-0.44,0.19-0.84,0.37-1.23,0.54l-0.61,0.29c-0.27,0.13-0.56,0.27-0.84,0.41l-3.92,2.1    c-1.57,0.89-3.11,1.82-4.61,2.71c-1.98,1.19-3.86,2.32-5.69,3.29c-0.05,0.03-0.16,0.08-0.21,0.11c-0.25,0.13-0.57,0.31-0.89,0.46    c-0.12,0.06-0.27,0.13-0.42,0.2c-0.35,0.17-0.66,0.32-0.96,0.46c-0.12,0.05-0.27,0.12-0.44,0.19c-0.01,0-0.09,0.04-0.1,0.04    c-0.29,0.13-0.58,0.26-0.87,0.37c-0.19,0.08-0.39,0.15-0.59,0.22c-0.3,0.12-0.63,0.24-0.96,0.34c-0.2,0.07-0.43,0.13-0.66,0.2    c-0.37,0.11-0.7,0.21-1.02,0.28c-0.27,0.06-0.51,0.11-0.74,0.15c-0.42,0.09-0.79,0.15-1.14,0.2c-0.29,0.04-0.58,0.07-0.88,0.08    c-0.46,0.04-0.89,0.07-1.31,0.06c-0.34,0-0.67-0.02-0.92-0.04c-0.28-0.01-0.75-0.04-1.31-0.13c-0.46-0.07-0.85-0.17-1.15-0.24    c-0.26-0.06-0.75-0.18-1.31-0.38c-0.53-0.19-0.94-0.38-1.25-0.53c-0.33-0.15-0.73-0.34-1.19-0.61c-0.56-0.34-0.97-0.64-1.2-0.83    c-0.26-0.19-0.59-0.44-0.95-0.77c-0.5-0.46-0.88-0.87-1.11-1.14c-0.2-0.21-0.44-0.48-0.69-0.82c-0.43-0.56-0.87-1.22-1.26-1.93    c-0.19-0.35-0.39-0.68-0.58-1.02c0,0-0.05-0.09-0.05-0.09c-0.66-1.12-1.27-2.03-1.88-2.81c-2.06-2.64-3.93-3.62-6.92-3.63    c-0.05,0-0.1,0-0.16,0c-0.64,0-1.39,0.07-2.18,0.18l-0.19,0.03c-0.35,0.05-0.73,0.13-1.13,0.21l-0.32,0.07    c-0.98,0.22-2.04,0.52-3.13,0.89l-0.48,0.17c-0.42,0.15-0.88,0.32-1.35,0.5l-0.54,0.21c-0.63,0.25-1.27,0.52-1.93,0.82    c-0.02,0.01-0.03,0.01-0.05,0.02c-1.5,0.68-2.6,1.56-3.35,2.68c-0.45,0.67-0.79,1.43-1.05,2.33c-0.3,1.04-0.48,2.23-0.53,3.55    c-0.08,1.95,0.12,4.16,0.58,6.56c0.48,2.49,1.24,5.16,2.27,7.95c0.51,1.39,1.09,2.82,1.72,4.26c1.26,2.85,2.75,5.76,4.44,8.64    c0.42,0.72,0.85,1.43,1.28,2.13c2.63,4.24,5.55,8.22,8.67,11.84c0.02,0.02,0.04,0.04,0.05,0.06c0.56,0.65,1.08,1.28,1.59,1.9    l0.39,0.49c0.47,0.59,0.87,1.1,1.25,1.61l0.32,0.42c0.46,0.62,0.9,1.23,1.31,1.83l0.37,0.54c0.29,0.43,0.58,0.88,0.86,1.31    c0.14,0.23,0.27,0.43,0.4,0.63c0.33,0.54,0.65,1.08,0.96,1.61l0.3,0.55c0.26,0.47,0.5,0.94,0.73,1.4l0.18,0.36    c0.19,0.39,0.38,0.8,0.56,1.2l0.18,0.39c0.17,0.39,0.32,0.76,0.47,1.14l0.19,0.49c0.16,0.41,0.3,0.83,0.44,1.23l0.15,0.44    c0.14,0.45,0.27,0.86,0.38,1.26c0.05,0.18,0.1,0.36,0.14,0.55c0.08,0.33,0.15,0.62,0.21,0.9c0.05,0.24,0.1,0.49,0.15,0.73    c0.04,0.23,0.08,0.45,0.12,0.66c0.05,0.29,0.09,0.56,0.12,0.82c0.11,0.86,0.18,1.7,0.2,2.51c0,0.06,0.01,0.19,0.01,0.33    c0,0.21,0,0.49-0.01,0.77c-0.09,3.55-2.05,6.82-5.16,8.54c-3.11,1.72-6.89,1.7-9.94-0.12c-1.15-0.68-2.08-1.32-2.83-1.89    c-4.67-1.5-7.71-0.34-8.44,0.51c-0.46,0.54,0,2.22,1.09,4.01c0.19,0.31,0.39,0.61,0.61,0.92c0.01,0.02,0.03,0.04,0.04,0.05    c0.27,0.38,0.53,0.72,0.79,1.03c2.18,2.67,2.83,6.28,1.72,9.55c-1.11,3.27-3.83,5.73-7.19,6.52c-3.98,0.93-7.62,3.07-7.29,12.3    c0.14,3.71,1.13,6.52,3.12,8.83c0.02,0.02,0.04,0.04,0.05,0.06c0.76,0.88,1.61,1.65,2.58,2.36c2.6,1.9,4.12,4.94,4.09,8.16    c-0.03,3.22-1.61,6.23-4.24,8.08l-47.45,33.42c-6.87,4.84-13.29,10.23-19.09,16.04c-10.3,10.32-18.87,22.14-25.46,35.12    c-1.46,2.88-2.85,5.86-4.11,8.86c-0.84,1.98-1.64,4-2.39,6.02c-3.32,8.96-5.76,18.37-7.28,27.97c-0.17,1.05-0.32,2.11-0.46,3.17    c-1.14,8.37-1.58,16.94-1.3,25.46c0.44,13.75,2.7,27.32,6.72,40.33c2.46,7.97,5.58,15.7,9.28,22.98c0.32,0.62,0.7,1.32,1.17,2.13    l0.37,0.62c0.32,0.53,0.64,1.05,0.98,1.56l0.41,0.63c0.52,0.77,0.99,1.44,1.45,2.04l0.24,0.31    C96.34,419.81,96.77,420.35,97.2,420.88z M413.55,211.78L413.55,211.78L413.55,211.78z M353.73,178.44    c11.33,3.6,22.13,8.86,32.23,15.7c2,1.35,3.88,2.63,5.65,3.84c9.78,6.66,19.04,12.96,22.21,13.62c0.08-0.06,0.18-0.13,0.29-0.22    c0.01-0.01,0.02-0.02,0.04-0.03c0.17-0.14,0.33-0.29,0.5-0.44l0.13-0.12c0.2-0.18,0.37-0.36,0.56-0.54l0.21-0.21    c0.24-0.25,0.51-0.53,0.79-0.84c0.77-0.85,0.38-2.6,0.08-3.57c-2.26-7.27-13.11-17.09-31.61-21.44    C373.61,181.55,362.75,179.7,353.73,178.44z M264.49,45.52c0.01,0.01,0.03,0.02,0.04,0.03C264.52,45.54,264.5,45.53,264.49,45.52z     M263.53,44.91c0.01,0.01,0.03,0.02,0.04,0.03L263.53,44.91z M263.05,44.7C263.05,44.7,263.06,44.7,263.05,44.7    C263.06,44.7,263.05,44.7,263.05,44.7z M262.99,44.68c0.02,0.01,0.04,0.01,0.06,0.02C263.03,44.69,263.01,44.68,262.99,44.68z     M262.31,44.44c0.01,0,0.03,0.01,0.04,0.02L262.31,44.44z"/></g><g><g><g><path class="st74" d="M199.06,132.02c0,0,13.5-6.75-4.82-27.96s-31.82-55.93-10.61-65.57s28.93,0,33.75,8.68      s19.26-9.97,38.08-12.7c18.82-2.73,19.78,12.7,28.46,16.55c8.68,3.86,28.78-22.18,54.41-9.64c25.63,12.54,13.91,38.57,0,54.96      c-13.91,16.39-14.87,35.68-14.87,35.68l3.86,45.32c0,0,54,26.04,88.71,83.89s59.79,154.29-38.57,194.79      s-263.25,23.14-295.07-39.54s-21.21-150.43,47.25-198.64s68.46-48.21,68.46-48.21"/></g><g><path class="st75" d="M280.06,78.99c0,0-0.96-3.86,3.86-27.96c5.02,2.23,13.89-5.55,25.43-10.07      C295.25,53.5,280.06,78.99,280.06,78.99z M327.31,177.35l-1.41-16.54c-8.2-3.79-13.8-6.59-15.08-7.68      c-6.65-5.67-35.58,0.85-28.83,0l-95.6,24.76c-1.82,1.28-3.92,2.76-6.36,4.48c9.66,7.11,43.93,29.7,89.43,29.7      c54,0,53.82,64.86,46.29,91.61c-7.53,26.75,23.14,32.59,27.96,8.1s-3.86-96.49-6.75-102.2s15.43,5.08,35.68,25      s94.5,141.93-28.93,194.71c-99.08,42.37-209.07,10.97-256.2-4.57c41.48,55.91,196.04,69.99,289.95,31.32      c98.36-40.5,73.29-136.93,38.57-194.79C381.31,203.38,327.31,177.35,327.31,177.35z M223.17,78.99c0,0,2.46-19.42,7.9-33.83      c-6.51,3.88-11.29,6.33-13.69,2.01c-0.97-1.75-2.07-3.54-3.37-5.21L223.17,78.99z M199.06,132.02l-0.08,3.04      c2.47,4.16,5.44,7.35,8.76,7.41c7.27,0.12,80.82,0.06,116.61,0.02l-0.89-10.47c0,0,0.96-19.29,14.87-35.68      c13.91-16.39,25.63-42.43,0-54.96c-1.4-0.69-2.78-1.24-4.15-1.7c2.5,5.29,0.08,14.43-6.86,27.74      c-11.57,22.18-22.09,54-71.31,47.25c-28.66-3.93-45.84-2.97-55.22-1.48C208.57,127.26,199.06,132.02,199.06,132.02z"/></g><g><path class="st76" d="M183.63,38.49c7.14-3.25,12.75-4.3,17.24-3.95c-8.67,1.9-18.08,8-16.04,25.93      c3.63,32.01,37.72,66.01,37.72,66.01h-12.25c0,0-2.56-1.84-6.56-5c-0.52-4.23-3.01-9.92-9.5-17.43      C175.92,82.85,162.42,48.13,183.63,38.49z M180.03,182.36L180.03,182.36C180.03,182.36,180.03,182.36,180.03,182.36      L180.03,182.36z M112.58,446.61c18.57,0.22-30.19-30.15-16.69-134.85c6.52-50.56,26.35-82.45,45.13-101.93      c-3.57,2.51-7.35,5.18-11.38,8.01c-68.46,48.21-79.07,135.96-47.25,198.64C88.29,428.12,98.78,438.18,112.58,446.61z       M283.92,51.02c-8.68-3.86-9.64-19.28-28.46-16.55c-11.3,1.64-21.02,9.02-28.03,12.77c-4.55,15.12-4.26,31.75-4.26,31.75      s0.96-7.71,18.32-24.11C258.82,38.51,283.84,50.99,283.92,51.02z M302.46,44.1c-10.96,12.47-18.54,28.74-18.54,28.74      C299.35,45.48,343.71,51,343.71,51s0.63-2.68,0.38-6.11c-1.67-1.25-3.56-2.43-5.75-3.5C324.44,34.58,312.17,39.13,302.46,44.1z"/></g></g><g><g><path class="st1" d="M423.74,215.92c-9.64,10.61-13.5,6.75-43.39-13.5c-19.42-13.15-38.01-17.35-48.66-18.68      c-2.01,1.23-4.27,2.38-6.79,3.45c5.23,8.97,17.63,31.2,23.63,49.94c7.71,24.11,14.46,66.54-4.82,66.54s-21.21-0.96-22.18-37.61      c-0.71-27.03-10.87-57.73-16.53-73.14c-12.59,2.41-28.29,3.71-47.19,3.71c-57.94,0-89.6-4.82-90.56-31.17      c-0.57-15.55,7.94-20.76,15-22.41c-12.98-15.9,1.69-28.58,18.75-21.64c0,0,10.61,11.57,58.82,11.57s54.96-18.32,69.43-11.57      c10.73,5.01,12.95,16.38,1.2,26.24c6.87,3.46,13.26,9.03,13.26,17.81c0,0.55-0.03,1.08-0.08,1.62      c11.56,1.29,27.15,3.53,43.47,7.37C419.88,182.17,433.38,205.31,423.74,215.92z M289.45,311.61c-6.11-2.44-16.22-5.2-30.33-8.28      c-6.17-1.38-9.94-2.73-11.31-4.07c-1.37-1.33-2.05-2.94-2.05-4.83c0-5.2,4.03-7.8,12.09-7.8c9.62,0,16,4.13,19.12,12.39      l30.53-9.56c-6.44-17.62-20.16-27.6-41.16-29.94v-16.29h-18.73v16.68c-12.94,1.95-22.56,6.68-28.87,14.18      c-6.31,7.51-9.46,16.1-9.46,25.79c0,8.77,2.88,16.54,8.63,23.3c5.76,6.76,19.36,12.33,40.81,16.7      c5.46,1.11,9.26,2.41,11.41,3.91c2.15,1.5,3.22,3.58,3.22,6.24c0,5.07-4.62,7.61-13.85,7.61c-11.83,0-19.21-5.01-22.14-15.02      l-34.14,6.34c6.05,21.98,20.84,34.36,44.38,37.16v16.87h18.73v-16.87c13.85-1.56,24.72-6.09,32.62-13.59      c7.9-7.5,11.85-16.81,11.85-27.92c0-7.92-2.03-14.79-6.1-20.61C300.66,318.18,295.57,314.05,289.45,311.61z"/></g><g><path class="st2" d="M413.78,199.85c-11.57-13.82-57.21-24.43-66.86-23.79c-9.64,0.64-15.23,7.67-15.23,7.67      c-2.01,1.23-4.27,2.38-6.79,3.45c5.23,8.97,17.63,31.2,23.63,49.94c7.71,24.11,14.46,66.54-4.82,66.54      c-3.65,0-6.68-0.04-9.2-0.34c1.15-5.01,3.01-12.35,5.99-22.48c6.6-22.39-12.21-64.29-18.45-78.07      c-6.23-13.78-17.05-9.86-17.05-9.86c-12.59,2.41-28.29,3.71-47.19,3.71c-45.92,0-75.31-3.04-86.01-17.41      c9.03,1.38,23.82,2.86,46.56,3.13c44.33,0.54,93.86-2.44,96.43-13.37c2.57-10.93-9-5.14-71.36-12.21      c-47.55-5.39-59.44-12.34-62.41-15.34c-0.36-0.5-0.69-1-0.99-1.5c-0.07-0.22-0.21-2.47,28.68,8.47      c30.21,11.43,97.04,2.78,109.29-11.56c7.68-8.99,2.91-13.54-1.72-15.68c4.59-1.51,8.4-1.89,12.97,0.25      c10.73,5.01,12.95,16.38,1.2,26.24c2.04,1.03,4.04,2.25,5.84,3.68l0,0c-3.33,2.71-0.5,3.6,3.87,3.88      c2.16,2.8,3.55,6.17,3.55,10.24c0,0.55-0.03,1.08-0.08,1.62c11.56,1.29,27.15,3.53,43.47,7.37      c32.79,7.71,46.29,30.86,36.64,41.46c-1.55,1.71-2.95,3.03-4.33,3.98C420.2,214.17,419.55,206.74,413.78,199.85z M310.82,344.6      c0-7.92-2.03-14.79-6.1-20.61c-4.07-5.82-9.16-9.94-15.27-12.38c-6.11-2.44-16.22-5.2-30.33-8.28      c-6.17-1.38-9.94-2.73-11.31-4.07c-1.37-1.33-2.05-2.94-2.05-4.83c0-3.67,2.01-6.04,6.02-7.12l0,0c0,0-18.01,3.81-7.73,16.35      c10.29,12.54,54.23,6.11,59.26,35.04c5.03,28.93-23.9,39.86-40.61,39.86c0,0-4.27,18-5.67,19.29c-0.75,0.69-5.32,0.64-9.41,0.45      v4.7h18.73v-16.87c13.85-1.56,24.72-6.09,32.62-13.59C306.87,365.02,310.82,355.71,310.82,344.6z M287.07,265.47      c0.21,0.19,11.58,10.93,5.21,16.66c-6.43,5.79-19.59,9.95-19.59,9.95v0c1.68,1.73,3.04,3.87,4.07,6.43      c0.14,0.15,0.27,0.3,0.41,0.45l30.33-9.5C303.5,278.52,296.69,270.52,287.07,265.47z M250.37,356.38c0.01,0,0.03,0,0.04,0      c-6.6-2.05-10.95-6.63-13.03-13.76l-6.62,1.23C228.82,344.21,231.94,356.5,250.37,356.38z M266.35,259.52v-16.29h-9.49      c-0.2,9.47,0.17,16.29,0.17,16.29H266.35z"/></g><g><path class="st6" d="M198.99,218.3c0,8.77-7.11,15.89-15.89,15.89c-8.77,0-15.89-7.11-15.89-15.89      c0-8.77,7.11-15.89,15.89-15.89C191.87,202.42,198.99,209.53,198.99,218.3z M146.4,230.22c-2.98,0-5.39,2.41-5.39,5.39      c0,2.98,2.41,5.39,5.39,5.39s5.39-2.41,5.39-5.39C151.79,232.64,149.38,230.22,146.4,230.22z"/></g></g></g></g></svg>